<?xml version="1.0" encoding="UTF-8"?>
<!-- Generator: Adobe Illustrator 19.1.0, SVG Export Plug-In . SVG Version: 6.00 Build 0)  -->
<svg version="1.1" id="Layer_1" xmlns="http://www.w3.org/2000/svg" xmlns:xlink="http://www.w3.org/1999/xlink" x="0px" y="0px" width="450px" height="450px" viewBox="0 0 450 450" style="enable-background:new 0 0 450 450;" xml:space="preserve">
<style type="text/css">
	.st0{fill:#8191C9;}
	.st1{fill:#271D67;}
</style>
<g id="pharma-icon">
	<g>
		<path class="st0" d="M59.8,191.3c-34.5,22.3-57.3,61-57.3,105.1c0,31.7,11.8,60.6,31.2,82.6l106.9-106.9L59.8,191.3z"/>
		<path class="st0" d="M153.4,284.8L46.5,391.6c21.8,18.6,50.1,29.8,81,29.8c44.1,0,82.8-22.8,105.1-57.3L153.4,284.8z"/>
	</g>
	<g>
		<path class="st0" d="M154.1,52.2c19.5,0,37.8,7.5,51.5,21.2l197,197c13.7,13.7,21.2,32,21.2,51.5s-7.5,37.8-21.2,51.5    s-32,21.2-51.5,21.2s-37.8-7.5-51.5-21.2l-197-197c-13.7-13.7-21.2-32-21.2-51.5s7.5-37.8,21.2-51.5S134.6,52.2,154.1,52.2     M154.1,28.5c-24.7,0-49.4,9.4-68.2,28.1l0,0c-37.5,37.5-37.5,98.9,0,136.4l197,197c18.8,18.8,43.5,28.1,68.2,28.1    s49.4-9.4,68.2-28.1l0,0c37.5-37.5,37.5-98.9,0-136.4l-197-197C203.6,37.9,178.9,28.5,154.1,28.5L154.1,28.5z"/>
	</g>
	<path class="st1" d="M191,91c-19.3-19.3-50.6-19.3-69.8,0c-4.3,4.3-11.2,4.3-15.5,0s-4.3-11.2,0-15.5c27.8-27.8,73.1-27.8,100.9,0   l97,97l17.3-17.3l-98.5-98.5c-37.5-37.5-98.9-37.5-136.4,0s-37.5,98.9,0,136.4l98.5,98.5L288,188L191,91z"/>
</g>
</svg>