<?xml version="1.0" encoding="utf-8"?>
<!-- Generator: Adobe Illustrator 16.0.0, SVG Export Plug-In . SVG Version: 6.00 Build 0)  -->
<!DOCTYPE svg PUBLIC "-//W3C//DTD SVG 1.0//EN" "http://www.w3.org/TR/2001/REC-SVG-20010904/DTD/svg10.dtd">
<svg version="1.0" id="Layer_1" xmlns="http://www.w3.org/2000/svg" xmlns:xlink="http://www.w3.org/1999/xlink" x="0px" y="0px"
	 width="75.569px" height="76.467px" viewBox="0 0 75.569 76.467" enable-background="new 0 0 75.569 76.467" xml:space="preserve">
<g>
	<path fill-rule="evenodd" clip-rule="evenodd" d="M64.267,61.786c-0.739,0-1.478,0.012-2.216-0.002
		c-2.387-0.048-4.783,0.001-7.159-0.188c-2.538-0.202-5.065-0.582-7.583-0.977c-3.478-0.547-6.855-1.53-10.143-2.766
		c-2.173-0.817-4.334-1.716-6.383-2.801c-2.47-1.309-4.934-2.692-7.183-4.339c-2.411-1.765-4.631-3.808-6.821-5.852
		c-2.364-2.205-4.416-4.716-6.191-7.412c-1.522-2.314-2.894-4.734-4.219-7.169c-0.908-1.669-1.753-3.398-2.391-5.185
		c-0.853-2.388-1.501-4.849-2.194-7.292c-0.9-3.174-1.367-6.43-1.583-9.71C0.04,5.635,0.07,3.165,0,0.701
		C-0.014,0.176,0.225-0.013,0.718,0c0.611,0.017,1.224,0.042,1.833,0.006c0.632-0.038,0.841,0.242,0.833,0.839
		C3.367,2.175,3.278,3.515,3.407,4.832c0.286,2.931,0.609,5.863,1.066,8.771c0.321,2.041,0.822,4.06,1.367,6.055
		c0.42,1.539,0.934,3.07,1.583,4.526c1.147,2.575,2.253,5.195,3.702,7.601c1.531,2.542,3.303,4.974,5.228,7.235
		c1.887,2.218,4.019,4.25,6.19,6.2c2.145,1.926,4.5,3.604,7.07,4.955c1.456,0.764,2.854,1.646,4.339,2.345
		c1.632,0.767,3.302,1.482,5.013,2.043c2.264,0.742,4.559,1.437,6.888,1.921c2.518,0.525,5.08,0.936,7.643,1.124
		c3.433,0.252,6.885,0.244,10.329,0.343c0.15,0.004,0.302-0.031,0.656-0.071c-0.569-0.665-1.02-1.24-1.52-1.768
		c-3.195-3.377-6.415-6.731-9.596-10.121c-0.941-1.003-0.901-1.051,0.104-1.986c0.354-0.329,0.738-0.625,1.103-0.933
		c6.729,5.946,13.61,11.556,20.999,16.745c-0.849,0.655-1.638,1.268-2.431,1.875c-3.413,2.62-6.865,5.19-10.228,7.873
		c-2.53,2.019-4.949,4.176-7.412,6.279c-0.942,0.804-0.945,0.815-1.766,0.138c-0.45-0.372-0.892-0.753-1.426-1.206
		c4.13-4.344,8.119-8.54,12.107-12.734C64.365,61.955,64.316,61.87,64.267,61.786z"/>
</g>
</svg>
