<?xml version="1.0" encoding="utf-8"?>
<!-- Generator: Adobe Illustrator 16.0.0, SVG Export Plug-In . SVG Version: 6.00 Build 0)  -->
<!DOCTYPE svg PUBLIC "-//W3C//DTD SVG 1.1//EN" "http://www.w3.org/Graphics/SVG/1.1/DTD/svg11.dtd">
<svg version="1.1" id="Layer_1" xmlns="http://www.w3.org/2000/svg" xmlns:xlink="http://www.w3.org/1999/xlink" x="0px" y="0px"
	 width="29.25px" height="20.813px" viewBox="0 0 29.25 20.813" enable-background="new 0 0 29.25 20.813" xml:space="preserve">
<path stroke="#000000" stroke-width="2" stroke-miterlimit="10" d="M26.139,16.761l-6.922-6.922l6.92-6.919
	c0.438-0.438,0.438-1.15,0-1.591c-0.439-0.438-1.152-0.438-1.593,0l-6.919,6.919l-6.92-6.919c-0.439-0.438-1.151-0.438-1.591,0
	c-0.44,0.439-0.439,1.151,0,1.591l6.919,6.919l-6.92,6.922c-0.439,0.438-0.439,1.151,0,1.592c0.22,0.22,0.507,0.329,0.795,0.329
	c0.288,0,0.576-0.109,0.795-0.329l6.921-6.921l6.921,6.921c0.221,0.22,0.508,0.329,0.796,0.329s0.576-0.109,0.796-0.329
	C26.576,17.913,26.576,17.2,26.139,16.761z"/>
</svg>
