<?xml version="1.0" encoding="utf-8"?>
<!-- Generator: Adobe Illustrator 16.0.0, SVG Export Plug-In . SVG Version: 6.00 Build 0)  -->
<!DOCTYPE svg PUBLIC "-//W3C//DTD SVG 1.0//EN" "http://www.w3.org/TR/2001/REC-SVG-20010904/DTD/svg10.dtd">
<svg version="1.0" id="Layer_1" xmlns="http://www.w3.org/2000/svg" xmlns:xlink="http://www.w3.org/1999/xlink" x="0px" y="0px"
	 width="29.25px" height="20.813px" viewBox="-0.795 -0.736 29.25 20.813" enable-background="new -0.795 -0.736 29.25 20.813"
	 xml:space="preserve">
<g>
	<g>
		<g>
			<path stroke="#000000" stroke-miterlimit="10" d="M26.685,15.805h-9.73c-0.26-1.25-1.359-2.189-2.7-2.189
				c-1.33,0-2.44,0.939-2.7,2.189H0.984c-0.31,0-0.57,0.25-0.57,0.561c0,0.319,0.26,0.569,0.57,0.569h10.57
				c0.26,1.25,1.37,2.19,2.7,2.19c1.341,0,2.44-0.94,2.7-2.19h9.73c0.31,0,0.56-0.25,0.56-0.569
				C27.245,16.055,26.995,15.805,26.685,15.805z M15.775,16.935c-0.221,0.62-0.82,1.061-1.521,1.061c-0.7,0-1.3-0.44-1.52-1.061
				c-0.07-0.18-0.11-0.369-0.11-0.569s0.04-0.391,0.11-0.561c0.22-0.62,0.82-1.06,1.52-1.06c0.7,0,1.3,0.439,1.521,1.06
				c0.07,0.17,0.109,0.36,0.109,0.561S15.845,16.756,15.775,16.935z"/>
		</g>
	</g>
	<g>
		<g>
			<path stroke="#000000" stroke-miterlimit="10" d="M26.685,9.106H7.854c-0.26-1.25-1.37-2.19-2.7-2.19c-1.33,0-2.44,0.94-2.7,2.19
				h-1.47c-0.31,0-0.57,0.25-0.57,0.569c0,0.311,0.26,0.561,0.57,0.561h1.47c0.25,1.25,1.37,2.199,2.7,2.199
				c1.33,0,2.45-0.949,2.7-2.199h18.831c0.31,0,0.56-0.25,0.56-0.561C27.245,9.356,26.995,9.106,26.685,9.106z M6.674,10.236
				c-0.22,0.62-0.82,1.06-1.52,1.06c-0.7,0-1.3-0.439-1.52-1.06c-0.07-0.17-0.11-0.36-0.11-0.561s0.04-0.39,0.11-0.569
				c0.22-0.62,0.82-1.061,1.52-1.061c0.7,0,1.3,0.44,1.52,1.061c0.07,0.18,0.11,0.369,0.11,0.569S6.745,10.066,6.674,10.236z"/>
		</g>
	</g>
	<g>
		<g>
			<path stroke="#000000" stroke-miterlimit="10" d="M26.685,2.416h-1.91c-0.25-1.25-1.36-2.2-2.7-2.2c-1.33,0-2.44,0.95-2.69,2.2
				h-18.4c-0.31,0-0.57,0.25-0.57,0.56c0,0.311,0.26,0.57,0.57,0.57h18.4c0.26,1.25,1.36,2.19,2.69,2.19c1.34,0,2.44-0.94,2.7-2.19
				h1.91c0.31,0,0.56-0.26,0.56-0.57C27.245,2.666,26.995,2.416,26.685,2.416z M23.595,3.546c-0.221,0.62-0.82,1.061-1.521,1.061
				c-0.69,0-1.29-0.44-1.511-1.061c-0.069-0.18-0.109-0.37-0.109-0.57c0-0.199,0.04-0.39,0.109-0.56
				c0.221-0.62,0.82-1.06,1.511-1.06c0.7,0,1.3,0.439,1.521,1.06c0.069,0.17,0.109,0.36,0.109,0.56
				C23.705,3.176,23.665,3.366,23.595,3.546z"/>
		</g>
	</g>
</g>
</svg>
